<!-- icon666.com - MILLIONS vector ICONS FREE --><svg viewBox="-99 0 512 512.002" xmlns="http://www.w3.org/2000/svg"><path d="m309.300781 492.34375c-8.347656-4.242188-21.851562-10.636719-38.78125-17.003906-3.871093-1.457032-8.199219.503906-9.65625 4.382812-1.460937 3.875.5 8.199219 4.378907 9.660156 6.886718 2.589844 13.175781 5.179688 18.753906 7.617188h-252.988282c28.625-12.507812 75.960938-29 126.492188-29 24.539062 0 50.761719 3.890625 77.945312 11.570312 3.988282 1.125 8.132813-1.195312 9.257813-5.179687 1.125-3.988281-1.195313-8.132813-5.179687-9.257813-8.566407-2.417968-17.050782-4.472656-25.433594-6.171874 14.003906-37.234376 21.957031-94.613282 23.660156-170.824219 2.082031-83.664063-9.15625-145.996094-18.953125-183.554688-11.324219-43.417969-27.421875-78.910156-43.058594-94.941406-6.238281-6.398437-12.375-9.640625-18.238281-9.640625-18.9375 0-35.664062 32.902344-43.949219 52.515625-1.613281 3.816406.171875 8.214844 3.988281 9.828125 3.8125 1.613281 8.214844-.171875 9.828126-3.988281 14.949218-35.390625 27.066406-43.355469 30.132812-43.355469.101562 0 2.570312.058594 7.5 5.113281 17.222656 17.660157 38.402344 67.578125 49.800781 139.816407-13.726562-3.675782-25.429687-9.585938-34.878906-17.636719-19.070313-16.238281-42.148437-28.195313-68.671875-35.621094 1.707031-6.472656 3.515625-12.792969 5.441406-18.925781 1.238282-3.949219-.960937-8.160156-4.914062-9.398438-3.949219-1.238281-8.160156.960938-9.402344 4.914063-18.0625 57.621093-26.984375 130.382812-25.121094 204.855469 1.699219 76.261718 9.65625 133.648437 23.664063 170.867187-43.183594 8.769531-78.746094 24.988281-95.21875 33.363281-4.304688 2.1875-6.53125 6.980469-5.410157 11.65625 1.128907 4.710938 5.320313 8 10.191407 8h294.039062c4.871094 0 9.066407-3.289062 10.191407-8 1.121093-4.675781-1.101563-9.46875-5.410157-11.660156zm-217.054687-204.582031c-.300782-12.0625-.308594-24.074219-.042969-35.980469 30.8125 6.199219 57.023437 18.339844 77.988281 36.191406 13.703125 11.671875 31.117188 19.4375 51.816406 23.160156-.667968 16.035157-1.640624 31.089844-2.917968 45.140626-30.800782-4.703126-57.042969-16.128907-78.074219-34.039063-13.011719-11.082031-29.308594-19.210937-48.492187-24.226563-.105469-3.378906-.199219-6.785156-.277344-10.246093zm77.949218-134.050781c12.589844 10.722656 28.359376 18.171874 46.914063 22.195312 1.929687 14.691406 3.449219 30.207031 4.460937 46.464844-10.046874-1.40625-19.699218-3.523438-28.773437-6.335938-3.960937-1.226562-8.160156.988282-9.382813 4.941406-1.230468 3.957032.984376 8.160157 4.9375 9.386719 10.710938 3.320313 22.128907 5.75 34.011719 7.257813.660157 16.074218.820313 32.8125.386719 50.164062-.058594 2.761719-.132812 5.492188-.210938 8.199219-17.117187-3.378906-31.429687-9.898437-42.621093-19.429687-23.496094-20.007813-52.816407-33.4375-87.21875-39.96875.816406-19.035157 2.347656-37.71875 4.574219-55.796876 13.277343 4.433594 24.703124 10.671876 34.019531 18.605469 8.03125 6.839844 16.859375 12.902344 26.234375 18.015625 1.140625.621094 2.371094.914063 3.585937.914063 2.65625 0 5.230469-1.414063 6.589844-3.910157 1.984375-3.632812.644531-8.191406-2.992187-10.171874-8.472657-4.621094-16.441407-10.09375-23.691407-16.269532-11.429687-9.734375-25.441406-17.207031-41.695312-22.285156 2.265625-15.375 5.042969-30.246094 8.320312-44.449219 24.234375 6.847657 45.253907 17.746094 62.550781 32.472657zm-77.089843 160.027343c15.074219 4.476563 27.890625 11.148438 38.1875 19.917969 23.363281 19.894531 52.359375 32.519531 86.273437 37.570312-4.015625 35.632813-10.199218 64.082032-18.515625 85.058594-11.597656-1.773437-22.964843-2.832031-34.050781-3.160156v-18.125c0-4.140625-3.355469-7.5-7.5-7.5-4.140625 0-7.5 3.359375-7.5 7.5v18.125c-11.617188.347656-23.023438 1.480469-34.046875 3.171875-12.386719-31.230469-20.050781-79.066406-22.847656-142.558594zm0 0" fill="#000000" style="fill: rgb(255, 255, 255);"></path></svg>